<svg width="160" height="160" viewBox="0 0 160 160" fill="none" xmlns="http://www.w3.org/2000/svg">
    <path opacity="0.6"
          d="M105.546 136.644C74.6969 144.91 15.7197 121.458 7.44395 90.5726C-0.831814 59.687 10.1392 65.0111 40.9888 56.745C71.8384 48.4789 89.7421 -10.662 133.521 44.0256C177.3 98.7132 136.396 128.378 105.546 136.644Z"
          fill="#8083A4" fill-opacity="0.06"/>
    <path fill-rule="evenodd" clip-rule="evenodd"
          d="M122.5 119H94.5H57H35.5H35V118.992C26.671 118.728 20 111.893 20 103.5C20 95.4403 26.1515 88.8173 34.0156 88.0702C36.9893 78.1939 46.1545 71 57 71C59.3753 71 61.67 71.3451 63.8368 71.9878C69.0316 60.2162 80.8063 52 94.5 52C112.092 52 126.517 65.5601 127.893 82.7983C135.479 85.1066 141 92.1586 141 100.5C141 110.55 132.986 118.728 123 118.993V119H122.5Z"
          fill="white"/>
    <path fill-rule="evenodd" clip-rule="evenodd"
          d="M133.314 85.4883C133.761 87.0812 134 88.761 134 90.4967C134 100.547 125.986 108.725 116 108.99V108.997H115.5H90.5H50H28.5H28V108.989C25.188 108.9 22.565 108.062 20.3239 106.667C21.7531 113.551 27.7481 118.762 35 118.992V119H35.5H57H94.5H122.5H123V118.994C132.986 118.729 141 110.55 141 100.5C141 94.3202 137.97 88.848 133.314 85.4883Z"
          fill="#373AF5" fill-opacity="0.1"/>
    <path d="M35 119H34V120H35V119ZM35 118.992H36V118.023L35.0317 117.993L35 118.992ZM34.0156 88.0702L34.1102 89.0657L34.7794 89.0021L34.9732 88.3585L34.0156 88.0702ZM63.8368 71.9878L63.5524 72.9465L64.3962 73.1969L64.7516 72.3916L63.8368 71.9878ZM127.893 82.7983L126.896 82.8778L126.95 83.5567L127.602 83.755L127.893 82.7983ZM123 118.993L122.973 117.994L122 118.02V118.993H123ZM123 119V120H124V119H123ZM122.5 118H94.5V120H122.5V118ZM94.5 118H57V120H94.5V118ZM57 118H35.5V120H57V118ZM35.5 118H35V120H35.5V118ZM36 119V118.992H34V119H36ZM35.0317 117.993C27.2406 117.746 21 111.351 21 103.5H19C19 112.435 26.1014 119.711 34.9683 119.992L35.0317 117.993ZM21 103.5C21 95.9608 26.7546 89.7645 34.1102 89.0657L33.921 87.0746C25.5485 87.8701 19 94.9197 19 103.5H21ZM34.9732 88.3585C37.8231 78.8929 46.6079 72 57 72V70C45.7011 70 36.1554 77.4948 33.0581 87.7819L34.9732 88.3585ZM57 72C59.278 72 61.477 72.3309 63.5524 72.9465L64.1211 71.0291C61.8631 70.3593 59.4726 70 57 70V72ZM64.7516 72.3916C69.7924 60.9692 81.2166 53 94.5 53V51C80.396 51 68.2709 59.4632 62.9219 71.5841L64.7516 72.3916ZM94.5 53C111.566 53 125.561 66.1553 126.896 82.8778L128.889 82.7187C127.473 64.965 112.618 51 94.5 51V53ZM127.602 83.755C134.779 85.9387 140 92.611 140 100.5H142C142 91.7062 136.18 84.2744 128.184 81.8416L127.602 83.755ZM140 100.5C140 110.007 132.419 117.743 122.973 117.994L123.027 119.993C133.553 119.714 142 111.093 142 100.5H140ZM122 118.993V119H124V118.993H122ZM123 118H122.5V120H123V118Z"
          fill="#373AF5"/>
    <path d="M20 103.5C20 94.9396 26.9396 88 35.5 88C38.0188 88 40.3973 88.6008 42.5 89.6669" stroke="#373AF5"
          stroke-width="2" stroke-linecap="round"/>
    <path d="M128 85.5C128 66.9985 113.002 52 94.5 52C75.9985 52 61 66.9985 61 85.5" stroke="#373AF5" stroke-width="2"
          stroke-linecap="round"/>
    <circle cx="136.5" cy="17.5" r="5.5" stroke="#373AF5" stroke-width="2"/>
    <circle cx="6.5" cy="36.5" r="3.5" stroke="#373AF5" stroke-width="2"/>
    <circle cx="137.5" cy="142.5" r="3.5" stroke="#373AF5" stroke-width="2"/>
    <path fill-rule="evenodd" clip-rule="evenodd"
          d="M65 47C64.4477 47 64 47.4477 64 48V51H61C60.4477 51 60 51.4477 60 52C60 52.5523 60.4477 53 61 53H64V56C64 56.5523 64.4477 57 65 57C65.5523 57 66 56.5523 66 56V53H69C69.5523 53 70 52.5523 70 52C70 51.4477 69.5523 51 69 51H66V48C66 47.4477 65.5523 47 65 47Z"
          fill="#373AF5"/>
    <path fill-rule="evenodd" clip-rule="evenodd"
          d="M145.83 62.2135C145.407 62.5685 145.352 63.1992 145.707 63.6223L147.636 65.9207L145.337 67.8494C144.914 68.2044 144.859 68.8351 145.214 69.2582C145.569 69.6813 146.2 69.7364 146.623 69.3814L148.921 67.4528L150.849 69.7507C151.204 70.1737 151.835 70.2289 152.258 69.8739C152.681 69.5189 152.736 68.8882 152.381 68.4651L150.453 66.1672L152.751 64.2391C153.174 63.8841 153.229 63.2534 152.874 62.8303C152.519 62.4072 151.889 62.3521 151.466 62.7071L149.168 64.6352L147.239 62.3367C146.884 61.9137 146.253 61.8585 145.83 62.2135Z"
          fill="#373AF5"/>
    <path fill-rule="evenodd" clip-rule="evenodd"
          d="M38.1759 132.12C37.632 132.216 37.2688 132.734 37.3647 133.278L37.8857 136.233L34.9313 136.754C34.3874 136.85 34.0242 137.368 34.1201 137.912C34.216 138.456 34.7347 138.819 35.2786 138.723L38.233 138.202L38.7539 141.157C38.8498 141.701 39.3685 142.064 39.9124 141.968C40.4563 141.872 40.8194 141.353 40.7235 140.809L40.2026 137.855L43.157 137.334C43.7009 137.238 44.0641 136.72 43.9682 136.176C43.8723 135.632 43.3536 135.269 42.8097 135.365L39.8553 135.886L39.3343 132.931C39.2384 132.387 38.7198 132.024 38.1759 132.12Z"
          fill="#373AF5"/>
</svg>
